<svg id="instagram" xmlns="http://www.w3.org/2000/svg" width="22.959" height="22.959" viewBox="0 0 22.959 22.959">
  <path id="Path_2" data-name="Path 2" d="M93.592,83.438H85.717a2.282,2.282,0,0,0-2.279,2.279v7.875a2.282,2.282,0,0,0,2.279,2.28h7.875a2.282,2.282,0,0,0,2.28-2.28V85.717A2.282,2.282,0,0,0,93.592,83.438Zm-3.937,10.31a4.093,4.093,0,1,1,4.093-4.093A4.1,4.1,0,0,1,89.655,93.748Zm4.225-7.34a.968.968,0,1,1,.968-.968A.97.97,0,0,1,93.88,86.408Z" transform="translate(-78.175 -78.175)" fill="#fff" fill-rule="evenodd"/>
  <path id="Path_3" data-name="Path 3" d="M146.887,144.531a2.364,2.364,0,1,0,2.363,2.363A2.367,2.367,0,0,0,146.887,144.531Z" transform="translate(-135.407 -135.415)" fill="#fff" fill-rule="evenodd"/>
  <path id="Path_4" data-name="Path 4" d="M0,0V22.959H22.959V0ZM19.426,15.417a4.013,4.013,0,0,1-4.009,4.009H7.542a4.013,4.013,0,0,1-4.009-4.009V7.542A4.014,4.014,0,0,1,7.542,3.533h7.875a4.013,4.013,0,0,1,4.009,4.009Z" fill="#fff" fill-rule="evenodd"/>
</svg>
