<svg id="twitter" xmlns="http://www.w3.org/2000/svg" width="22.959" height="22.959" viewBox="0 0 22.959 22.959">
  <g id="Group_8" data-name="Group 8">
    <g id="Group_7" data-name="Group 7">
      <path id="Path_5" data-name="Path 5" d="M18.654,0H4.3A4.3,4.3,0,0,0,0,4.3V18.654a4.3,4.3,0,0,0,4.3,4.3H18.654a4.3,4.3,0,0,0,4.3-4.3V4.3A4.3,4.3,0,0,0,18.654,0ZM17.191,8.9l.009.366A8.037,8.037,0,0,1,4.826,16.04a5.812,5.812,0,0,0,.674.04,5.671,5.671,0,0,0,3.51-1.21,2.831,2.831,0,0,1-2.64-1.963,2.949,2.949,0,0,0,.532.049,2.826,2.826,0,0,0,.745-.1A2.829,2.829,0,0,1,5.38,10.088v-.036a2.822,2.822,0,0,0,1.28.354,2.831,2.831,0,0,1-.875-3.772A8.021,8.021,0,0,0,11.61,9.587,2.829,2.829,0,0,1,16.427,7.01a5.723,5.723,0,0,0,1.8-.686A2.834,2.834,0,0,1,16.98,7.888,5.666,5.666,0,0,0,18.6,7.443,5.713,5.713,0,0,1,17.191,8.9Z" fill="#fff"/>
    </g>
  </g>
</svg>
